<svg width="30" height="30" viewBox="0 0 30 30" fill="none" xmlns="http://www.w3.org/2000/svg">
<circle cx="15" cy="15" r="15" fill="#1E70FE"/>
<path d="M14.3148 19.3577C15.1594 19.4428 16.0125 19.3576 16.8234 19.1073L15.8998 16.128C15.4889 16.2548 15.0566 16.298 14.6287 16.2549C14.2008 16.2118 13.7859 16.0833 13.4087 15.877C13.0315 15.6708 12.6997 15.391 12.433 15.0543C12.3505 14.9501 12.2747 14.8411 12.206 14.7279V11.4081C12.4222 11.052 12.706 10.7413 13.0417 10.4934C13.3874 10.2381 13.781 10.0547 14.1991 9.95414L13.467 6.92233C12.6417 7.12078 11.8649 7.48271 11.1825 7.98662C10.5002 8.49053 9.92635 9.12615 9.495 9.85571C9.21164 10.335 8.99358 10.8484 8.84555 11.3823H8.82732V11.4495C8.75903 11.7067 8.70695 11.9686 8.67159 12.2336C8.56214 13.0537 8.61512 13.8872 8.82732 14.6866V24.6577C8.82732 24.8905 9.0164 25.0792 9.24965 25.0792H10.5166C11.4496 25.0792 12.206 24.3244 12.206 23.3934V18.7653C12.8683 19.0831 13.5819 19.2839 14.3148 19.3577Z" fill="white"/>
<path d="M17.4241 18.9066C19.0034 18.4284 20.3333 17.354 21.1308 15.9121C21.9283 14.4702 22.1305 12.7747 21.6942 11.1863C21.258 9.59798 20.2178 8.24221 18.795 7.40758C17.3723 6.57294 15.6793 6.32533 14.0763 6.71745L14.8204 9.74637C15.6326 9.5477 16.4904 9.67315 17.2113 10.096C17.9321 10.5189 18.4592 11.2059 18.6802 12.0107C18.9013 12.8155 18.7988 13.6745 18.3947 14.4051C17.9907 15.1357 17.3168 15.68 16.5166 15.9223L17.4241 18.9066Z" fill="white"/>
<path d="M12.6283 14.5431C13.4447 14.5431 14.1064 13.8827 14.1064 13.068C14.1064 12.2534 13.4447 11.593 12.6283 11.593L5.87101 11.593C5.05465 11.593 4.39285 12.2534 4.39285 13.068C4.39285 13.8827 5.05465 14.5431 5.87101 14.5431H12.6283Z" fill="white"/>
<path d="M17.9074 14.3324C17.0911 14.3324 16.4293 13.672 16.4293 12.8573C16.4293 12.0427 17.0911 11.3823 17.9074 11.3823L24.6647 11.3823C25.4811 11.3823 26.1429 12.0427 26.1429 12.8573C26.1429 13.672 25.4811 14.3324 24.6647 14.3324H17.9074Z" fill="white"/>
</svg>
